<svg xmlns="http://www.w3.org/2000/svg" width="860" height="860" viewBox="0 0 860 860">
<rect width="100%" height="100%" fill="#ffffff"/>
<text x="430.0" y="42" text-anchor="middle" font-size="28" font-family="Arial" font-weight="700">Rank 3 Differential Constellation</text>
<rect x="90" y="90" width="680" height="680" fill="none" stroke="#333" stroke-width="2"/>
<line x1="430.00" y1="90" x2="430.00" y2="770" stroke="#666" stroke-width="1.5"/>
<line x1="90" y1="430.00" x2="770" y2="430.00" stroke="#666" stroke-width="1.5"/>
<line x1="289.71" y1="90" x2="289.71" y2="770" stroke="#e5e7eb" stroke-width="1"/>
<line x1="90" y1="570.29" x2="770" y2="570.29" stroke="#e5e7eb" stroke-width="1"/>
<line x1="359.85" y1="90" x2="359.85" y2="770" stroke="#e5e7eb" stroke-width="1"/>
<line x1="90" y1="500.15" x2="770" y2="500.15" stroke="#e5e7eb" stroke-width="1"/>
<line x1="500.15" y1="90" x2="500.15" y2="770" stroke="#e5e7eb" stroke-width="1"/>
<line x1="90" y1="359.85" x2="770" y2="359.85" stroke="#e5e7eb" stroke-width="1"/>
<line x1="570.29" y1="90" x2="570.29" y2="770" stroke="#e5e7eb" stroke-width="1"/>
<line x1="90" y1="289.71" x2="770" y2="289.71" stroke="#e5e7eb" stroke-width="1"/>
<circle cx="570.29" cy="430.00" r="6.0" fill="#111" opacity="0.55"/>
<circle cx="430.00" cy="289.71" r="6.0" fill="#111" opacity="0.55"/>
<circle cx="289.71" cy="430.00" r="6.0" fill="#111" opacity="0.55"/>
<circle cx="430.00" cy="570.29" r="6.0" fill="#111" opacity="0.55"/>
<circle cx="387.25" cy="409.78" r="3.2" fill="#0b66d0" fill-opacity="0.50"/>
<circle cx="363.91" cy="636.37" r="3.2" fill="#0b66d0" fill-opacity="0.50"/>
<circle cx="294.89" cy="430.74" r="3.2" fill="#0b66d0" fill-opacity="0.50"/>
<circle cx="383.01" cy="455.01" r="3.2" fill="#0b66d0" fill-opacity="0.50"/>
<circle cx="398.83" cy="421.13" r="3.2" fill="#0b66d0" fill-opacity="0.50"/>
<circle cx="488.07" cy="456.59" r="3.2" fill="#0b66d0" fill-opacity="0.50"/>
<circle cx="504.63" cy="358.39" r="3.2" fill="#0b66d0" fill-opacity="0.50"/>
<circle cx="554.75" cy="430.90" r="3.2" fill="#0b66d0" fill-opacity="0.50"/>
<circle cx="310.26" cy="221.87" r="3.2" fill="#0b66d0" fill-opacity="0.50"/>
<circle cx="374.88" cy="136.66" r="3.2" fill="#0b66d0" fill-opacity="0.50"/>
<circle cx="342.22" cy="420.75" r="3.2" fill="#0b66d0" fill-opacity="0.50"/>
<circle cx="413.00" cy="424.28" r="3.2" fill="#0b66d0" fill-opacity="0.50"/>
<circle cx="480.37" cy="420.55" r="3.2" fill="#0b66d0" fill-opacity="0.50"/>
<circle cx="405.13" cy="225.60" r="3.2" fill="#0b66d0" fill-opacity="0.50"/>
<circle cx="342.11" cy="167.65" r="3.2" fill="#0b66d0" fill-opacity="0.50"/>
<circle cx="498.32" cy="404.62" r="3.2" fill="#0b66d0" fill-opacity="0.50"/>
<circle cx="484.89" cy="410.86" r="3.2" fill="#0b66d0" fill-opacity="0.50"/>
<circle cx="401.98" cy="412.45" r="3.2" fill="#0b66d0" fill-opacity="0.50"/>
<circle cx="431.19" cy="432.36" r="3.2" fill="#0b66d0" fill-opacity="0.50"/>
<circle cx="430.68" cy="434.07" r="3.2" fill="#0b66d0" fill-opacity="0.50"/>
<circle cx="386.15" cy="410.31" r="3.2" fill="#0b66d0" fill-opacity="0.50"/>
<circle cx="366.48" cy="637.17" r="3.2" fill="#0b66d0" fill-opacity="0.50"/>
<circle cx="295.95" cy="431.80" r="3.2" fill="#0b66d0" fill-opacity="0.50"/>
<circle cx="383.93" cy="455.64" r="3.2" fill="#0b66d0" fill-opacity="0.50"/>
<circle cx="398.21" cy="420.42" r="3.2" fill="#0b66d0" fill-opacity="0.50"/>
<circle cx="489.99" cy="455.93" r="3.2" fill="#0b66d0" fill-opacity="0.50"/>
<circle cx="503.85" cy="359.76" r="3.2" fill="#0b66d0" fill-opacity="0.50"/>
<circle cx="555.36" cy="431.44" r="3.2" fill="#0b66d0" fill-opacity="0.50"/>
<circle cx="305.06" cy="219.15" r="3.2" fill="#0b66d0" fill-opacity="0.50"/>
<circle cx="376.20" cy="134.35" r="3.2" fill="#0b66d0" fill-opacity="0.50"/>
<circle cx="346.90" cy="419.79" r="3.2" fill="#0b66d0" fill-opacity="0.50"/>
<circle cx="414.08" cy="425.02" r="3.2" fill="#0b66d0" fill-opacity="0.50"/>
<circle cx="479.92" cy="420.61" r="3.2" fill="#0b66d0" fill-opacity="0.50"/>
<circle cx="403.02" cy="225.62" r="3.2" fill="#0b66d0" fill-opacity="0.50"/>
<circle cx="343.45" cy="170.24" r="3.2" fill="#0b66d0" fill-opacity="0.50"/>
<circle cx="496.49" cy="405.61" r="3.2" fill="#0b66d0" fill-opacity="0.50"/>
<circle cx="483.72" cy="410.57" r="3.2" fill="#0b66d0" fill-opacity="0.50"/>
<circle cx="404.58" cy="412.05" r="3.2" fill="#0b66d0" fill-opacity="0.50"/>
<circle cx="431.31" cy="432.15" r="3.2" fill="#0b66d0" fill-opacity="0.50"/>
<circle cx="430.66" cy="434.29" r="3.2" fill="#0b66d0" fill-opacity="0.50"/>
<circle cx="384.39" cy="409.91" r="3.2" fill="#0b66d0" fill-opacity="0.50"/>
<circle cx="363.93" cy="636.83" r="3.2" fill="#0b66d0" fill-opacity="0.50"/>
<circle cx="293.06" cy="432.39" r="3.2" fill="#0b66d0" fill-opacity="0.50"/>
<circle cx="382.43" cy="455.73" r="3.2" fill="#0b66d0" fill-opacity="0.50"/>
<circle cx="397.61" cy="420.31" r="3.2" fill="#0b66d0" fill-opacity="0.50"/>
<circle cx="491.15" cy="455.82" r="3.2" fill="#0b66d0" fill-opacity="0.50"/>
<circle cx="503.30" cy="358.91" r="3.2" fill="#0b66d0" fill-opacity="0.50"/>
<circle cx="552.95" cy="429.94" r="3.2" fill="#0b66d0" fill-opacity="0.50"/>
<circle cx="311.20" cy="224.48" r="3.2" fill="#0b66d0" fill-opacity="0.50"/>
<circle cx="375.40" cy="139.11" r="3.2" fill="#0b66d0" fill-opacity="0.50"/>
<circle cx="343.15" cy="421.08" r="3.2" fill="#0b66d0" fill-opacity="0.50"/>
<circle cx="412.49" cy="423.34" r="3.2" fill="#0b66d0" fill-opacity="0.50"/>
<circle cx="483.10" cy="417.42" r="3.2" fill="#0b66d0" fill-opacity="0.50"/>
<circle cx="405.86" cy="224.17" r="3.2" fill="#0b66d0" fill-opacity="0.50"/>
<circle cx="340.71" cy="165.62" r="3.2" fill="#0b66d0" fill-opacity="0.50"/>
<circle cx="496.89" cy="406.04" r="3.2" fill="#0b66d0" fill-opacity="0.50"/>
<circle cx="483.17" cy="411.19" r="3.2" fill="#0b66d0" fill-opacity="0.50"/>
<circle cx="403.32" cy="412.32" r="3.2" fill="#0b66d0" fill-opacity="0.50"/>
<circle cx="431.32" cy="432.36" r="3.2" fill="#0b66d0" fill-opacity="0.50"/>
<circle cx="430.81" cy="434.23" r="3.2" fill="#0b66d0" fill-opacity="0.50"/>
<circle cx="387.04" cy="410.25" r="3.2" fill="#0b66d0" fill-opacity="0.50"/>
<circle cx="366.48" cy="637.17" r="3.2" fill="#0b66d0" fill-opacity="0.50"/>
<circle cx="294.93" cy="432.23" r="3.2" fill="#0b66d0" fill-opacity="0.50"/>
<circle cx="382.95" cy="454.88" r="3.2" fill="#0b66d0" fill-opacity="0.50"/>
<circle cx="398.81" cy="421.23" r="3.2" fill="#0b66d0" fill-opacity="0.50"/>
<circle cx="488.08" cy="456.57" r="3.2" fill="#0b66d0" fill-opacity="0.50"/>
<circle cx="503.93" cy="357.71" r="3.2" fill="#0b66d0" fill-opacity="0.50"/>
<circle cx="554.68" cy="430.08" r="3.2" fill="#0b66d0" fill-opacity="0.50"/>
<circle cx="308.81" cy="222.80" r="3.2" fill="#0b66d0" fill-opacity="0.50"/>
<circle cx="373.09" cy="137.05" r="3.2" fill="#0b66d0" fill-opacity="0.50"/>
<circle cx="342.19" cy="421.22" r="3.2" fill="#0b66d0" fill-opacity="0.50"/>
<circle cx="412.99" cy="424.34" r="3.2" fill="#0b66d0" fill-opacity="0.50"/>
<circle cx="480.33" cy="420.52" r="3.2" fill="#0b66d0" fill-opacity="0.50"/>
<circle cx="404.28" cy="225.73" r="3.2" fill="#0b66d0" fill-opacity="0.50"/>
<circle cx="341.22" cy="167.97" r="3.2" fill="#0b66d0" fill-opacity="0.50"/>
<circle cx="498.26" cy="404.42" r="3.2" fill="#0b66d0" fill-opacity="0.50"/>
<circle cx="484.89" cy="410.77" r="3.2" fill="#0b66d0" fill-opacity="0.50"/>
<circle cx="401.92" cy="412.51" r="3.2" fill="#0b66d0" fill-opacity="0.50"/>
<circle cx="431.19" cy="432.36" r="3.2" fill="#0b66d0" fill-opacity="0.50"/>
<circle cx="430.68" cy="434.07" r="3.2" fill="#0b66d0" fill-opacity="0.50"/>
<circle cx="386.11" cy="410.33" r="3.2" fill="#0b66d0" fill-opacity="0.50"/>
<circle cx="366.83" cy="637.30" r="3.2" fill="#0b66d0" fill-opacity="0.50"/>
<circle cx="295.97" cy="432.05" r="3.2" fill="#0b66d0" fill-opacity="0.50"/>
<circle cx="383.95" cy="455.66" r="3.2" fill="#0b66d0" fill-opacity="0.50"/>
<circle cx="398.22" cy="420.44" r="3.2" fill="#0b66d0" fill-opacity="0.50"/>
<circle cx="490.02" cy="455.84" r="3.2" fill="#0b66d0" fill-opacity="0.50"/>
<circle cx="503.80" cy="359.66" r="3.2" fill="#0b66d0" fill-opacity="0.50"/>
<circle cx="555.38" cy="431.37" r="3.2" fill="#0b66d0" fill-opacity="0.50"/>
<circle cx="304.87" cy="219.22" r="3.2" fill="#0b66d0" fill-opacity="0.50"/>
<circle cx="376.10" cy="134.40" r="3.2" fill="#0b66d0" fill-opacity="0.50"/>
<circle cx="346.89" cy="419.81" r="3.2" fill="#0b66d0" fill-opacity="0.50"/>
<circle cx="414.06" cy="425.02" r="3.2" fill="#0b66d0" fill-opacity="0.50"/>
<circle cx="479.94" cy="420.59" r="3.2" fill="#0b66d0" fill-opacity="0.50"/>
<circle cx="402.90" cy="225.65" r="3.2" fill="#0b66d0" fill-opacity="0.50"/>
<circle cx="343.46" cy="170.28" r="3.2" fill="#0b66d0" fill-opacity="0.50"/>
<circle cx="496.49" cy="405.60" r="3.2" fill="#0b66d0" fill-opacity="0.50"/>
<circle cx="483.72" cy="410.56" r="3.2" fill="#0b66d0" fill-opacity="0.50"/>
<circle cx="404.56" cy="412.01" r="3.2" fill="#0b66d0" fill-opacity="0.50"/>
<circle cx="431.32" cy="432.15" r="3.2" fill="#0b66d0" fill-opacity="0.50"/>
<circle cx="430.65" cy="434.29" r="3.2" fill="#0b66d0" fill-opacity="0.50"/>
<circle cx="384.37" cy="409.95" r="3.2" fill="#0b66d0" fill-opacity="0.50"/>
<circle cx="363.98" cy="636.90" r="3.2" fill="#0b66d0" fill-opacity="0.50"/>
<circle cx="292.97" cy="432.31" r="3.2" fill="#0b66d0" fill-opacity="0.50"/>
<circle cx="382.43" cy="455.75" r="3.2" fill="#0b66d0" fill-opacity="0.50"/>
<circle cx="397.59" cy="420.30" r="3.2" fill="#0b66d0" fill-opacity="0.50"/>
<circle cx="491.22" cy="455.80" r="3.2" fill="#0b66d0" fill-opacity="0.50"/>
<circle cx="503.31" cy="358.95" r="3.2" fill="#0b66d0" fill-opacity="0.50"/>
<circle cx="552.96" cy="429.95" r="3.2" fill="#0b66d0" fill-opacity="0.50"/>
<circle cx="311.20" cy="224.38" r="3.2" fill="#0b66d0" fill-opacity="0.50"/>
<circle cx="375.44" cy="139.04" r="3.2" fill="#0b66d0" fill-opacity="0.50"/>
<circle cx="343.15" cy="421.13" r="3.2" fill="#0b66d0" fill-opacity="0.50"/>
<circle cx="412.51" cy="423.32" r="3.2" fill="#0b66d0" fill-opacity="0.50"/>
<circle cx="483.10" cy="417.37" r="3.2" fill="#0b66d0" fill-opacity="0.50"/>
<circle cx="405.87" cy="224.06" r="3.2" fill="#0b66d0" fill-opacity="0.50"/>
<circle cx="340.75" cy="165.56" r="3.2" fill="#0b66d0" fill-opacity="0.50"/>
<circle cx="496.93" cy="406.02" r="3.2" fill="#0b66d0" fill-opacity="0.50"/>
<circle cx="483.19" cy="411.18" r="3.2" fill="#0b66d0" fill-opacity="0.50"/>
<circle cx="403.32" cy="412.32" r="3.2" fill="#0b66d0" fill-opacity="0.50"/>
<circle cx="431.32" cy="432.36" r="3.2" fill="#0b66d0" fill-opacity="0.50"/>
<circle cx="430.80" cy="434.23" r="3.2" fill="#0b66d0" fill-opacity="0.50"/>
<circle cx="386.99" cy="410.25" r="3.2" fill="#0b66d0" fill-opacity="0.50"/>
<circle cx="366.37" cy="637.15" r="3.2" fill="#0b66d0" fill-opacity="0.50"/>
<circle cx="294.93" cy="432.25" r="3.2" fill="#0b66d0" fill-opacity="0.50"/>
<circle cx="382.92" cy="454.89" r="3.2" fill="#0b66d0" fill-opacity="0.50"/>
<circle cx="398.79" cy="421.19" r="3.2" fill="#0b66d0" fill-opacity="0.50"/>
<circle cx="488.11" cy="456.54" r="3.2" fill="#0b66d0" fill-opacity="0.50"/>
<circle cx="503.96" cy="357.72" r="3.2" fill="#0b66d0" fill-opacity="0.50"/>
<circle cx="554.72" cy="430.09" r="3.2" fill="#0b66d0" fill-opacity="0.50"/>
<circle cx="308.82" cy="222.75" r="3.2" fill="#0b66d0" fill-opacity="0.50"/>
<circle cx="373.14" cy="137.01" r="3.2" fill="#0b66d0" fill-opacity="0.50"/>
<circle cx="342.19" cy="421.19" r="3.2" fill="#0b66d0" fill-opacity="0.50"/>
<circle cx="412.99" cy="424.32" r="3.2" fill="#0b66d0" fill-opacity="0.50"/>
<circle cx="480.34" cy="420.45" r="3.2" fill="#0b66d0" fill-opacity="0.50"/>
<circle cx="404.34" cy="225.68" r="3.2" fill="#0b66d0" fill-opacity="0.50"/>
<circle cx="341.19" cy="167.87" r="3.2" fill="#0b66d0" fill-opacity="0.50"/>
<circle cx="498.23" cy="404.41" r="3.2" fill="#0b66d0" fill-opacity="0.50"/>
<circle cx="484.87" cy="410.79" r="3.2" fill="#0b66d0" fill-opacity="0.50"/>
<circle cx="401.87" cy="412.49" r="3.2" fill="#0b66d0" fill-opacity="0.50"/>
<circle cx="431.19" cy="432.37" r="3.2" fill="#0b66d0" fill-opacity="0.50"/>
<circle cx="430.70" cy="434.07" r="3.2" fill="#0b66d0" fill-opacity="0.50"/>
<circle cx="386.16" cy="410.34" r="3.2" fill="#0b66d0" fill-opacity="0.50"/>
<circle cx="366.81" cy="637.26" r="3.2" fill="#0b66d0" fill-opacity="0.50"/>
<circle cx="295.98" cy="432.08" r="3.2" fill="#0b66d0" fill-opacity="0.50"/>
<circle cx="383.94" cy="455.64" r="3.2" fill="#0b66d0" fill-opacity="0.50"/>
<circle cx="398.23" cy="420.45" r="3.2" fill="#0b66d0" fill-opacity="0.50"/>
<circle cx="490.00" cy="455.86" r="3.2" fill="#0b66d0" fill-opacity="0.50"/>
<circle cx="503.81" cy="359.67" r="3.2" fill="#0b66d0" fill-opacity="0.50"/>
<circle cx="555.35" cy="431.35" r="3.2" fill="#0b66d0" fill-opacity="0.50"/>
<circle cx="304.89" cy="219.29" r="3.2" fill="#0b66d0" fill-opacity="0.50"/>
<circle cx="376.16" cy="134.39" r="3.2" fill="#0b66d0" fill-opacity="0.50"/>
<circle cx="346.86" cy="419.81" r="3.2" fill="#0b66d0" fill-opacity="0.50"/>
<circle cx="414.06" cy="425.02" r="3.2" fill="#0b66d0" fill-opacity="0.50"/>
<circle cx="479.93" cy="420.58" r="3.2" fill="#0b66d0" fill-opacity="0.50"/>
<circle cx="402.91" cy="225.64" r="3.2" fill="#0b66d0" fill-opacity="0.50"/>
<circle cx="343.43" cy="170.21" r="3.2" fill="#0b66d0" fill-opacity="0.50"/>
<circle cx="496.48" cy="405.55" r="3.2" fill="#0b66d0" fill-opacity="0.50"/>
<circle cx="483.72" cy="410.59" r="3.2" fill="#0b66d0" fill-opacity="0.50"/>
<circle cx="404.54" cy="412.06" r="3.2" fill="#0b66d0" fill-opacity="0.50"/>
<circle cx="431.32" cy="432.15" r="3.2" fill="#0b66d0" fill-opacity="0.50"/>
<circle cx="430.65" cy="434.29" r="3.2" fill="#0b66d0" fill-opacity="0.50"/>
<circle cx="384.37" cy="409.94" r="3.2" fill="#0b66d0" fill-opacity="0.50"/>
<circle cx="363.90" cy="636.90" r="3.2" fill="#0b66d0" fill-opacity="0.50"/>
<circle cx="293.00" cy="432.38" r="3.2" fill="#0b66d0" fill-opacity="0.50"/>
<circle cx="382.41" cy="455.74" r="3.2" fill="#0b66d0" fill-opacity="0.50"/>
<circle cx="397.57" cy="420.29" r="3.2" fill="#0b66d0" fill-opacity="0.50"/>
<circle cx="491.24" cy="455.83" r="3.2" fill="#0b66d0" fill-opacity="0.50"/>
<circle cx="503.28" cy="358.92" r="3.2" fill="#0b66d0" fill-opacity="0.50"/>
<circle cx="552.93" cy="430.00" r="3.2" fill="#0b66d0" fill-opacity="0.50"/>
<circle cx="311.17" cy="224.37" r="3.2" fill="#0b66d0" fill-opacity="0.50"/>
<circle cx="375.44" cy="138.97" r="3.2" fill="#0b66d0" fill-opacity="0.50"/>
<circle cx="343.19" cy="421.06" r="3.2" fill="#0b66d0" fill-opacity="0.50"/>
<circle cx="412.51" cy="423.35" r="3.2" fill="#0b66d0" fill-opacity="0.50"/>
<circle cx="483.08" cy="417.39" r="3.2" fill="#0b66d0" fill-opacity="0.50"/>
<circle cx="405.87" cy="224.04" r="3.2" fill="#0b66d0" fill-opacity="0.50"/>
<circle cx="340.76" cy="165.52" r="3.2" fill="#0b66d0" fill-opacity="0.50"/>
<circle cx="496.98" cy="406.04" r="3.2" fill="#0b66d0" fill-opacity="0.50"/>
<circle cx="483.22" cy="411.13" r="3.2" fill="#0b66d0" fill-opacity="0.50"/>
<circle cx="403.31" cy="412.24" r="3.2" fill="#0b66d0" fill-opacity="0.50"/>
<circle cx="431.33" cy="432.35" r="3.2" fill="#0b66d0" fill-opacity="0.50"/>
<circle cx="430.80" cy="434.22" r="3.2" fill="#0b66d0" fill-opacity="0.50"/>
<circle cx="386.98" cy="410.24" r="3.2" fill="#0b66d0" fill-opacity="0.50"/>
<circle cx="366.38" cy="637.19" r="3.2" fill="#0b66d0" fill-opacity="0.50"/>
<circle cx="294.91" cy="432.19" r="3.2" fill="#0b66d0" fill-opacity="0.50"/>
<circle cx="382.93" cy="454.87" r="3.2" fill="#0b66d0" fill-opacity="0.50"/>
<circle cx="398.80" cy="421.24" r="3.2" fill="#0b66d0" fill-opacity="0.50"/>
<circle cx="488.07" cy="456.58" r="3.2" fill="#0b66d0" fill-opacity="0.50"/>
<circle cx="503.94" cy="357.73" r="3.2" fill="#0b66d0" fill-opacity="0.50"/>
<circle cx="554.67" cy="430.11" r="3.2" fill="#0b66d0" fill-opacity="0.50"/>
<circle cx="308.80" cy="222.80" r="3.2" fill="#0b66d0" fill-opacity="0.50"/>
<circle cx="373.16" cy="137.05" r="3.2" fill="#0b66d0" fill-opacity="0.50"/>
<circle cx="342.20" cy="421.22" r="3.2" fill="#0b66d0" fill-opacity="0.50"/>
<circle cx="412.99" cy="424.33" r="3.2" fill="#0b66d0" fill-opacity="0.50"/>
<circle cx="480.33" cy="420.49" r="3.2" fill="#0b66d0" fill-opacity="0.50"/>
<circle cx="404.33" cy="225.72" r="3.2" fill="#0b66d0" fill-opacity="0.50"/>
<circle cx="341.27" cy="167.92" r="3.2" fill="#0b66d0" fill-opacity="0.50"/>
<circle cx="498.24" cy="404.42" r="3.2" fill="#0b66d0" fill-opacity="0.50"/>
<circle cx="484.87" cy="410.79" r="3.2" fill="#0b66d0" fill-opacity="0.50"/>
<circle cx="401.96" cy="412.51" r="3.2" fill="#0b66d0" fill-opacity="0.50"/>
<circle cx="431.20" cy="432.37" r="3.2" fill="#0b66d0" fill-opacity="0.50"/>
<circle cx="430.68" cy="434.09" r="3.2" fill="#0b66d0" fill-opacity="0.50"/>
<circle cx="386.09" cy="410.37" r="3.2" fill="#0b66d0" fill-opacity="0.50"/>
<circle cx="366.81" cy="637.31" r="3.2" fill="#0b66d0" fill-opacity="0.50"/>
<circle cx="295.94" cy="432.02" r="3.2" fill="#0b66d0" fill-opacity="0.50"/>
<circle cx="383.95" cy="455.66" r="3.2" fill="#0b66d0" fill-opacity="0.50"/>
<circle cx="398.22" cy="420.44" r="3.2" fill="#0b66d0" fill-opacity="0.50"/>
<circle cx="490.02" cy="455.84" r="3.2" fill="#0b66d0" fill-opacity="0.50"/>
<circle cx="503.81" cy="359.67" r="3.2" fill="#0b66d0" fill-opacity="0.50"/>
<circle cx="555.36" cy="431.40" r="3.2" fill="#0b66d0" fill-opacity="0.50"/>
<circle cx="304.93" cy="219.31" r="3.2" fill="#0b66d0" fill-opacity="0.50"/>
<circle cx="376.09" cy="134.46" r="3.2" fill="#0b66d0" fill-opacity="0.50"/>
<circle cx="346.89" cy="419.83" r="3.2" fill="#0b66d0" fill-opacity="0.50"/>
<circle cx="414.07" cy="425.03" r="3.2" fill="#0b66d0" fill-opacity="0.50"/>
<circle cx="479.91" cy="420.62" r="3.2" fill="#0b66d0" fill-opacity="0.50"/>
<circle cx="402.92" cy="225.69" r="3.2" fill="#0b66d0" fill-opacity="0.50"/>
<circle cx="343.46" cy="170.33" r="3.2" fill="#0b66d0" fill-opacity="0.50"/>
<circle cx="496.50" cy="405.57" r="3.2" fill="#0b66d0" fill-opacity="0.50"/>
<circle cx="483.74" cy="410.58" r="3.2" fill="#0b66d0" fill-opacity="0.50"/>
<circle cx="404.56" cy="412.01" r="3.2" fill="#0b66d0" fill-opacity="0.50"/>
<circle cx="431.32" cy="432.14" r="3.2" fill="#0b66d0" fill-opacity="0.50"/>
<circle cx="430.65" cy="434.28" r="3.2" fill="#0b66d0" fill-opacity="0.50"/>
<circle cx="384.39" cy="409.93" r="3.2" fill="#0b66d0" fill-opacity="0.50"/>
<circle cx="363.93" cy="636.90" r="3.2" fill="#0b66d0" fill-opacity="0.50"/>
<circle cx="292.98" cy="432.36" r="3.2" fill="#0b66d0" fill-opacity="0.50"/>
<circle cx="382.40" cy="455.73" r="3.2" fill="#0b66d0" fill-opacity="0.50"/>
<circle cx="397.58" cy="420.29" r="3.2" fill="#0b66d0" fill-opacity="0.50"/>
<circle cx="491.22" cy="455.78" r="3.2" fill="#0b66d0" fill-opacity="0.50"/>
<circle cx="503.32" cy="358.94" r="3.2" fill="#0b66d0" fill-opacity="0.50"/>
<circle cx="552.94" cy="429.96" r="3.2" fill="#0b66d0" fill-opacity="0.50"/>
<circle cx="311.26" cy="224.42" r="3.2" fill="#0b66d0" fill-opacity="0.50"/>
<circle cx="375.45" cy="139.08" r="3.2" fill="#0b66d0" fill-opacity="0.50"/>
<circle cx="343.14" cy="421.05" r="3.2" fill="#0b66d0" fill-opacity="0.50"/>
<circle cx="412.49" cy="423.34" r="3.2" fill="#0b66d0" fill-opacity="0.50"/>
<circle cx="483.10" cy="417.38" r="3.2" fill="#0b66d0" fill-opacity="0.50"/>
<circle cx="405.95" cy="224.11" r="3.2" fill="#0b66d0" fill-opacity="0.50"/>
<circle cx="340.72" cy="165.61" r="3.2" fill="#0b66d0" fill-opacity="0.50"/>
<circle cx="496.94" cy="406.04" r="3.2" fill="#0b66d0" fill-opacity="0.50"/>
<circle cx="483.20" cy="411.15" r="3.2" fill="#0b66d0" fill-opacity="0.50"/>
<circle cx="403.35" cy="412.31" r="3.2" fill="#0b66d0" fill-opacity="0.50"/>
<circle cx="431.32" cy="432.36" r="3.2" fill="#0b66d0" fill-opacity="0.50"/>
<circle cx="430.81" cy="434.22" r="3.2" fill="#0b66d0" fill-opacity="0.50"/>
<circle cx="387.05" cy="410.23" r="3.2" fill="#0b66d0" fill-opacity="0.50"/>
<circle cx="366.40" cy="637.14" r="3.2" fill="#0b66d0" fill-opacity="0.50"/>
<circle cx="294.91" cy="432.16" r="3.2" fill="#0b66d0" fill-opacity="0.50"/>
<circle cx="382.96" cy="454.89" r="3.2" fill="#0b66d0" fill-opacity="0.50"/>
<circle cx="398.81" cy="421.23" r="3.2" fill="#0b66d0" fill-opacity="0.50"/>
<circle cx="488.08" cy="456.59" r="3.2" fill="#0b66d0" fill-opacity="0.50"/>
<circle cx="503.93" cy="357.70" r="3.2" fill="#0b66d0" fill-opacity="0.50"/>
<circle cx="554.67" cy="430.14" r="3.2" fill="#0b66d0" fill-opacity="0.50"/>
<circle cx="308.83" cy="222.81" r="3.2" fill="#0b66d0" fill-opacity="0.50"/>
<circle cx="373.13" cy="137.02" r="3.2" fill="#0b66d0" fill-opacity="0.50"/>
<circle cx="342.22" cy="421.20" r="3.2" fill="#0b66d0" fill-opacity="0.50"/>
<circle cx="413.04" cy="424.25" r="3.2" fill="#0b66d0" fill-opacity="0.50"/>
<circle cx="480.31" cy="420.67" r="3.2" fill="#0b66d0" fill-opacity="0.50"/>
<circle cx="404.06" cy="225.79" r="3.2" fill="#0b66d0" fill-opacity="0.50"/>
<circle cx="340.96" cy="168.01" r="3.2" fill="#0b66d0" fill-opacity="0.50"/>
<circle cx="498.19" cy="404.36" r="3.2" fill="#0b66d0" fill-opacity="0.50"/>
<text x="430.0" y="840" text-anchor="middle" font-size="24" font-family="Arial" font-weight="700">In-phase</text>
<text x="30" y="430.0" text-anchor="middle" font-size="24" font-family="Arial" font-weight="700" transform="rotate(-90 30 430.0)">Quadrature</text>
</svg>
