<svg xmlns="http://www.w3.org/2000/svg" width="860" height="860" viewBox="0 0 860 860">
<rect width="100%" height="100%" fill="#ffffff"/>
<text x="430.0" y="42" text-anchor="middle" font-size="28" font-family="Arial" font-weight="700">Rank 3 Symbol Constellation</text>
<rect x="90" y="90" width="680" height="680" fill="none" stroke="#333" stroke-width="2"/>
<line x1="430.00" y1="90" x2="430.00" y2="770" stroke="#666" stroke-width="1.5"/>
<line x1="90" y1="430.00" x2="770" y2="430.00" stroke="#666" stroke-width="1.5"/>
<line x1="248.76" y1="90" x2="248.76" y2="770" stroke="#e5e7eb" stroke-width="1"/>
<line x1="90" y1="611.24" x2="770" y2="611.24" stroke="#e5e7eb" stroke-width="1"/>
<line x1="339.38" y1="90" x2="339.38" y2="770" stroke="#e5e7eb" stroke-width="1"/>
<line x1="90" y1="520.62" x2="770" y2="520.62" stroke="#e5e7eb" stroke-width="1"/>
<line x1="520.62" y1="90" x2="520.62" y2="770" stroke="#e5e7eb" stroke-width="1"/>
<line x1="90" y1="339.38" x2="770" y2="339.38" stroke="#e5e7eb" stroke-width="1"/>
<line x1="611.24" y1="90" x2="611.24" y2="770" stroke="#e5e7eb" stroke-width="1"/>
<line x1="90" y1="248.76" x2="770" y2="248.76" stroke="#e5e7eb" stroke-width="1"/>
<circle cx="558.15" cy="301.85" r="6.0" fill="#111" opacity="0.55"/>
<circle cx="558.15" cy="558.15" r="6.0" fill="#111" opacity="0.55"/>
<circle cx="301.85" cy="301.85" r="6.0" fill="#111" opacity="0.55"/>
<circle cx="301.85" cy="558.15" r="6.0" fill="#111" opacity="0.55"/>
<circle cx="240.02" cy="537.44" r="3.2" fill="#0b66d0" fill-opacity="0.50"/>
<circle cx="380.75" cy="192.86" r="3.2" fill="#0b66d0" fill-opacity="0.50"/>
<circle cx="458.40" cy="563.08" r="3.2" fill="#0b66d0" fill-opacity="0.50"/>
<circle cx="368.58" cy="356.97" r="3.2" fill="#0b66d0" fill-opacity="0.50"/>
<circle cx="463.94" cy="505.58" r="3.2" fill="#0b66d0" fill-opacity="0.50"/>
<circle cx="428.62" cy="618.05" r="3.2" fill="#0b66d0" fill-opacity="0.50"/>
<circle cx="522.18" cy="527.49" r="3.2" fill="#0b66d0" fill-opacity="0.50"/>
<circle cx="584.63" cy="595.93" r="3.2" fill="#0b66d0" fill-opacity="0.50"/>
<circle cx="505.96" cy="183.18" r="3.2" fill="#0b66d0" fill-opacity="0.50"/>
<circle cx="149.86" cy="398.26" r="3.2" fill="#0b66d0" fill-opacity="0.50"/>
<circle cx="504.57" cy="446.50" r="3.2" fill="#0b66d0" fill-opacity="0.50"/>
<circle cx="380.92" cy="400.43" r="3.2" fill="#0b66d0" fill-opacity="0.50"/>
<circle cx="225.57" cy="353.81" r="3.2" fill="#0b66d0" fill-opacity="0.50"/>
<circle cx="376.24" cy="653.86" r="3.2" fill="#0b66d0" fill-opacity="0.50"/>
<circle cx="722.04" cy="404.36" r="3.2" fill="#0b66d0" fill-opacity="0.50"/>
<circle cx="484.78" cy="403.99" r="3.2" fill="#0b66d0" fill-opacity="0.50"/>
<circle cx="596.44" cy="265.73" r="3.2" fill="#0b66d0" fill-opacity="0.50"/>
<circle cx="396.33" cy="437.50" r="3.2" fill="#0b66d0" fill-opacity="0.50"/>
<circle cx="418.14" cy="415.51" r="3.2" fill="#0b66d0" fill-opacity="0.50"/>
<circle cx="465.38" cy="389.54" r="3.2" fill="#0b66d0" fill-opacity="0.50"/>
<circle cx="231.76" cy="520.99" r="3.2" fill="#0b66d0" fill-opacity="0.50"/>
<circle cx="397.92" cy="189.79" r="3.2" fill="#0b66d0" fill-opacity="0.50"/>
<circle cx="449.66" cy="563.51" r="3.2" fill="#0b66d0" fill-opacity="0.50"/>
<circle cx="372.02" cy="354.37" r="3.2" fill="#0b66d0" fill-opacity="0.50"/>
<circle cx="460.04" cy="509.49" r="3.2" fill="#0b66d0" fill-opacity="0.50"/>
<circle cx="421.24" cy="617.41" r="3.2" fill="#0b66d0" fill-opacity="0.50"/>
<circle cx="516.74" cy="530.18" r="3.2" fill="#0b66d0" fill-opacity="0.50"/>
<circle cx="579.05" cy="606.20" r="3.2" fill="#0b66d0" fill-opacity="0.50"/>
<circle cx="514.87" cy="185.23" r="3.2" fill="#0b66d0" fill-opacity="0.50"/>
<circle cx="150.37" cy="386.67" r="3.2" fill="#0b66d0" fill-opacity="0.50"/>
<circle cx="499.44" cy="449.67" r="3.2" fill="#0b66d0" fill-opacity="0.50"/>
<circle cx="382.80" cy="399.12" r="3.2" fill="#0b66d0" fill-opacity="0.50"/>
<circle cx="227.08" cy="345.78" r="3.2" fill="#0b66d0" fill-opacity="0.50"/>
<circle cx="370.68" cy="651.08" r="3.2" fill="#0b66d0" fill-opacity="0.50"/>
<circle cx="721.27" cy="412.66" r="3.2" fill="#0b66d0" fill-opacity="0.50"/>
<circle cx="484.28" cy="406.34" r="3.2" fill="#0b66d0" fill-opacity="0.50"/>
<circle cx="600.89" cy="268.20" r="3.2" fill="#0b66d0" fill-opacity="0.50"/>
<circle cx="398.07" cy="434.60" r="3.2" fill="#0b66d0" fill-opacity="0.50"/>
<circle cx="417.86" cy="415.32" r="3.2" fill="#0b66d0" fill-opacity="0.50"/>
<circle cx="467.01" cy="388.47" r="3.2" fill="#0b66d0" fill-opacity="0.50"/>
<circle cx="231.16" cy="520.71" r="3.2" fill="#0b66d0" fill-opacity="0.50"/>
<circle cx="401.27" cy="189.35" r="3.2" fill="#0b66d0" fill-opacity="0.50"/>
<circle cx="448.73" cy="566.57" r="3.2" fill="#0b66d0" fill-opacity="0.50"/>
<circle cx="373.46" cy="352.79" r="3.2" fill="#0b66d0" fill-opacity="0.50"/>
<circle cx="458.85" cy="511.20" r="3.2" fill="#0b66d0" fill-opacity="0.50"/>
<circle cx="419.08" cy="617.59" r="3.2" fill="#0b66d0" fill-opacity="0.50"/>
<circle cx="516.61" cy="530.36" r="3.2" fill="#0b66d0" fill-opacity="0.50"/>
<circle cx="577.90" cy="601.23" r="3.2" fill="#0b66d0" fill-opacity="0.50"/>
<circle cx="513.96" cy="188.22" r="3.2" fill="#0b66d0" fill-opacity="0.50"/>
<circle cx="151.03" cy="388.21" r="3.2" fill="#0b66d0" fill-opacity="0.50"/>
<circle cx="503.14" cy="448.75" r="3.2" fill="#0b66d0" fill-opacity="0.50"/>
<circle cx="380.55" cy="395.11" r="3.2" fill="#0b66d0" fill-opacity="0.50"/>
<circle cx="225.87" cy="348.03" r="3.2" fill="#0b66d0" fill-opacity="0.50"/>
<circle cx="369.78" cy="651.79" r="3.2" fill="#0b66d0" fill-opacity="0.50"/>
<circle cx="725.65" cy="412.07" r="3.2" fill="#0b66d0" fill-opacity="0.50"/>
<circle cx="483.80" cy="406.97" r="3.2" fill="#0b66d0" fill-opacity="0.50"/>
<circle cx="602.89" cy="270.70" r="3.2" fill="#0b66d0" fill-opacity="0.50"/>
<circle cx="397.21" cy="435.27" r="3.2" fill="#0b66d0" fill-opacity="0.50"/>
<circle cx="417.68" cy="414.41" r="3.2" fill="#0b66d0" fill-opacity="0.50"/>
<circle cx="464.59" cy="390.05" r="3.2" fill="#0b66d0" fill-opacity="0.50"/>
<circle cx="231.24" cy="520.26" r="3.2" fill="#0b66d0" fill-opacity="0.50"/>
<circle cx="398.90" cy="189.85" r="3.2" fill="#0b66d0" fill-opacity="0.50"/>
<circle cx="449.70" cy="564.65" r="3.2" fill="#0b66d0" fill-opacity="0.50"/>
<circle cx="373.66" cy="353.01" r="3.2" fill="#0b66d0" fill-opacity="0.50"/>
<circle cx="459.00" cy="507.61" r="3.2" fill="#0b66d0" fill-opacity="0.50"/>
<circle cx="416.56" cy="617.58" r="3.2" fill="#0b66d0" fill-opacity="0.50"/>
<circle cx="516.67" cy="532.36" r="3.2" fill="#0b66d0" fill-opacity="0.50"/>
<circle cx="576.42" cy="603.15" r="3.2" fill="#0b66d0" fill-opacity="0.50"/>
<circle cx="516.03" cy="186.53" r="3.2" fill="#0b66d0" fill-opacity="0.50"/>
<circle cx="151.15" cy="388.49" r="3.2" fill="#0b66d0" fill-opacity="0.50"/>
<circle cx="504.03" cy="448.70" r="3.2" fill="#0b66d0" fill-opacity="0.50"/>
<circle cx="381.76" cy="399.15" r="3.2" fill="#0b66d0" fill-opacity="0.50"/>
<circle cx="227.63" cy="348.51" r="3.2" fill="#0b66d0" fill-opacity="0.50"/>
<circle cx="371.36" cy="652.62" r="3.2" fill="#0b66d0" fill-opacity="0.50"/>
<circle cx="722.46" cy="409.75" r="3.2" fill="#0b66d0" fill-opacity="0.50"/>
<circle cx="485.20" cy="404.84" r="3.2" fill="#0b66d0" fill-opacity="0.50"/>
<circle cx="598.77" cy="268.11" r="3.2" fill="#0b66d0" fill-opacity="0.50"/>
<circle cx="396.24" cy="437.11" r="3.2" fill="#0b66d0" fill-opacity="0.50"/>
<circle cx="418.30" cy="415.39" r="3.2" fill="#0b66d0" fill-opacity="0.50"/>
<circle cx="465.83" cy="389.90" r="3.2" fill="#0b66d0" fill-opacity="0.50"/>
<circle cx="230.83" cy="519.01" r="3.2" fill="#0b66d0" fill-opacity="0.50"/>
<circle cx="399.90" cy="189.55" r="3.2" fill="#0b66d0" fill-opacity="0.50"/>
<circle cx="448.80" cy="563.62" r="3.2" fill="#0b66d0" fill-opacity="0.50"/>
<circle cx="372.46" cy="354.02" r="3.2" fill="#0b66d0" fill-opacity="0.50"/>
<circle cx="459.60" cy="509.61" r="3.2" fill="#0b66d0" fill-opacity="0.50"/>
<circle cx="420.53" cy="617.44" r="3.2" fill="#0b66d0" fill-opacity="0.50"/>
<circle cx="516.47" cy="530.41" r="3.2" fill="#0b66d0" fill-opacity="0.50"/>
<circle cx="578.70" cy="606.55" r="3.2" fill="#0b66d0" fill-opacity="0.50"/>
<circle cx="515.18" cy="185.35" r="3.2" fill="#0b66d0" fill-opacity="0.50"/>
<circle cx="150.43" cy="386.41" r="3.2" fill="#0b66d0" fill-opacity="0.50"/>
<circle cx="499.44" cy="449.72" r="3.2" fill="#0b66d0" fill-opacity="0.50"/>
<circle cx="382.78" cy="399.11" r="3.2" fill="#0b66d0" fill-opacity="0.50"/>
<circle cx="227.04" cy="345.87" r="3.2" fill="#0b66d0" fill-opacity="0.50"/>
<circle cx="370.91" cy="651.12" r="3.2" fill="#0b66d0" fill-opacity="0.50"/>
<circle cx="721.24" cy="412.35" r="3.2" fill="#0b66d0" fill-opacity="0.50"/>
<circle cx="484.26" cy="406.27" r="3.2" fill="#0b66d0" fill-opacity="0.50"/>
<circle cx="600.67" cy="267.96" r="3.2" fill="#0b66d0" fill-opacity="0.50"/>
<circle cx="398.04" cy="434.64" r="3.2" fill="#0b66d0" fill-opacity="0.50"/>
<circle cx="417.82" cy="415.38" r="3.2" fill="#0b66d0" fill-opacity="0.50"/>
<circle cx="466.96" cy="388.41" r="3.2" fill="#0b66d0" fill-opacity="0.50"/>
<circle cx="231.38" cy="521.16" r="3.2" fill="#0b66d0" fill-opacity="0.50"/>
<circle cx="400.64" cy="189.36" r="3.2" fill="#0b66d0" fill-opacity="0.50"/>
<circle cx="449.01" cy="566.60" r="3.2" fill="#0b66d0" fill-opacity="0.50"/>
<circle cx="373.28" cy="352.93" r="3.2" fill="#0b66d0" fill-opacity="0.50"/>
<circle cx="459.07" cy="511.21" r="3.2" fill="#0b66d0" fill-opacity="0.50"/>
<circle cx="419.65" cy="617.61" r="3.2" fill="#0b66d0" fill-opacity="0.50"/>
<circle cx="516.86" cy="530.11" r="3.2" fill="#0b66d0" fill-opacity="0.50"/>
<circle cx="578.39" cy="600.87" r="3.2" fill="#0b66d0" fill-opacity="0.50"/>
<circle cx="513.37" cy="187.99" r="3.2" fill="#0b66d0" fill-opacity="0.50"/>
<circle cx="150.90" cy="388.85" r="3.2" fill="#0b66d0" fill-opacity="0.50"/>
<circle cx="503.17" cy="448.55" r="3.2" fill="#0b66d0" fill-opacity="0.50"/>
<circle cx="380.51" cy="395.20" r="3.2" fill="#0b66d0" fill-opacity="0.50"/>
<circle cx="225.60" cy="348.49" r="3.2" fill="#0b66d0" fill-opacity="0.50"/>
<circle cx="370.28" cy="651.97" r="3.2" fill="#0b66d0" fill-opacity="0.50"/>
<circle cx="725.60" cy="411.44" r="3.2" fill="#0b66d0" fill-opacity="0.50"/>
<circle cx="483.78" cy="406.83" r="3.2" fill="#0b66d0" fill-opacity="0.50"/>
<circle cx="602.49" cy="270.30" r="3.2" fill="#0b66d0" fill-opacity="0.50"/>
<circle cx="397.22" cy="435.34" r="3.2" fill="#0b66d0" fill-opacity="0.50"/>
<circle cx="417.64" cy="414.46" r="3.2" fill="#0b66d0" fill-opacity="0.50"/>
<circle cx="464.52" cy="389.94" r="3.2" fill="#0b66d0" fill-opacity="0.50"/>
<circle cx="231.49" cy="520.83" r="3.2" fill="#0b66d0" fill-opacity="0.50"/>
<circle cx="398.34" cy="189.92" r="3.2" fill="#0b66d0" fill-opacity="0.50"/>
<circle cx="450.03" cy="564.60" r="3.2" fill="#0b66d0" fill-opacity="0.50"/>
<circle cx="373.44" cy="353.09" r="3.2" fill="#0b66d0" fill-opacity="0.50"/>
<circle cx="459.12" cy="507.59" r="3.2" fill="#0b66d0" fill-opacity="0.50"/>
<circle cx="416.96" cy="617.60" r="3.2" fill="#0b66d0" fill-opacity="0.50"/>
<circle cx="516.89" cy="532.21" r="3.2" fill="#0b66d0" fill-opacity="0.50"/>
<circle cx="576.76" cy="602.88" r="3.2" fill="#0b66d0" fill-opacity="0.50"/>
<circle cx="515.59" cy="186.36" r="3.2" fill="#0b66d0" fill-opacity="0.50"/>
<circle cx="151.08" cy="388.94" r="3.2" fill="#0b66d0" fill-opacity="0.50"/>
<circle cx="504.06" cy="448.61" r="3.2" fill="#0b66d0" fill-opacity="0.50"/>
<circle cx="381.73" cy="399.15" r="3.2" fill="#0b66d0" fill-opacity="0.50"/>
<circle cx="227.48" cy="348.87" r="3.2" fill="#0b66d0" fill-opacity="0.50"/>
<circle cx="371.67" cy="652.73" r="3.2" fill="#0b66d0" fill-opacity="0.50"/>
<circle cx="722.49" cy="409.33" r="3.2" fill="#0b66d0" fill-opacity="0.50"/>
<circle cx="485.12" cy="404.76" r="3.2" fill="#0b66d0" fill-opacity="0.50"/>
<circle cx="598.55" cy="267.82" r="3.2" fill="#0b66d0" fill-opacity="0.50"/>
<circle cx="396.20" cy="437.18" r="3.2" fill="#0b66d0" fill-opacity="0.50"/>
<circle cx="418.31" cy="415.37" r="3.2" fill="#0b66d0" fill-opacity="0.50"/>
<circle cx="465.72" cy="389.86" r="3.2" fill="#0b66d0" fill-opacity="0.50"/>
<circle cx="230.99" cy="519.37" r="3.2" fill="#0b66d0" fill-opacity="0.50"/>
<circle cx="399.52" cy="189.63" r="3.2" fill="#0b66d0" fill-opacity="0.50"/>
<circle cx="449.05" cy="563.60" r="3.2" fill="#0b66d0" fill-opacity="0.50"/>
<circle cx="372.36" cy="354.12" r="3.2" fill="#0b66d0" fill-opacity="0.50"/>
<circle cx="459.73" cy="509.56" r="3.2" fill="#0b66d0" fill-opacity="0.50"/>
<circle cx="420.75" cy="617.44" r="3.2" fill="#0b66d0" fill-opacity="0.50"/>
<circle cx="516.58" cy="530.32" r="3.2" fill="#0b66d0" fill-opacity="0.50"/>
<circle cx="578.87" cy="606.33" r="3.2" fill="#0b66d0" fill-opacity="0.50"/>
<circle cx="514.88" cy="185.25" r="3.2" fill="#0b66d0" fill-opacity="0.50"/>
<circle cx="150.39" cy="386.69" r="3.2" fill="#0b66d0" fill-opacity="0.50"/>
<circle cx="499.48" cy="449.65" r="3.2" fill="#0b66d0" fill-opacity="0.50"/>
<circle cx="382.76" cy="399.14" r="3.2" fill="#0b66d0" fill-opacity="0.50"/>
<circle cx="226.99" cy="346.05" r="3.2" fill="#0b66d0" fill-opacity="0.50"/>
<circle cx="371.08" cy="651.20" r="3.2" fill="#0b66d0" fill-opacity="0.50"/>
<circle cx="721.26" cy="412.11" r="3.2" fill="#0b66d0" fill-opacity="0.50"/>
<circle cx="484.21" cy="406.20" r="3.2" fill="#0b66d0" fill-opacity="0.50"/>
<circle cx="600.50" cy="267.82" r="3.2" fill="#0b66d0" fill-opacity="0.50"/>
<circle cx="398.05" cy="434.72" r="3.2" fill="#0b66d0" fill-opacity="0.50"/>
<circle cx="417.80" cy="415.38" r="3.2" fill="#0b66d0" fill-opacity="0.50"/>
<circle cx="466.91" cy="388.38" r="3.2" fill="#0b66d0" fill-opacity="0.50"/>
<circle cx="231.45" cy="521.37" r="3.2" fill="#0b66d0" fill-opacity="0.50"/>
<circle cx="400.49" cy="189.38" r="3.2" fill="#0b66d0" fill-opacity="0.50"/>
<circle cx="449.16" cy="566.54" r="3.2" fill="#0b66d0" fill-opacity="0.50"/>
<circle cx="373.19" cy="352.95" r="3.2" fill="#0b66d0" fill-opacity="0.50"/>
<circle cx="459.13" cy="511.21" r="3.2" fill="#0b66d0" fill-opacity="0.50"/>
<circle cx="419.73" cy="617.64" r="3.2" fill="#0b66d0" fill-opacity="0.50"/>
<circle cx="516.94" cy="530.02" r="3.2" fill="#0b66d0" fill-opacity="0.50"/>
<circle cx="578.45" cy="600.79" r="3.2" fill="#0b66d0" fill-opacity="0.50"/>
<circle cx="513.27" cy="187.90" r="3.2" fill="#0b66d0" fill-opacity="0.50"/>
<circle cx="150.87" cy="388.97" r="3.2" fill="#0b66d0" fill-opacity="0.50"/>
<circle cx="503.13" cy="448.56" r="3.2" fill="#0b66d0" fill-opacity="0.50"/>
<circle cx="380.50" cy="395.25" r="3.2" fill="#0b66d0" fill-opacity="0.50"/>
<circle cx="225.57" cy="348.61" r="3.2" fill="#0b66d0" fill-opacity="0.50"/>
<circle cx="370.40" cy="652.03" r="3.2" fill="#0b66d0" fill-opacity="0.50"/>
<circle cx="725.59" cy="411.31" r="3.2" fill="#0b66d0" fill-opacity="0.50"/>
<circle cx="483.81" cy="406.83" r="3.2" fill="#0b66d0" fill-opacity="0.50"/>
<circle cx="602.44" cy="270.17" r="3.2" fill="#0b66d0" fill-opacity="0.50"/>
<circle cx="397.17" cy="435.31" r="3.2" fill="#0b66d0" fill-opacity="0.50"/>
<circle cx="417.65" cy="414.51" r="3.2" fill="#0b66d0" fill-opacity="0.50"/>
<circle cx="464.51" cy="389.91" r="3.2" fill="#0b66d0" fill-opacity="0.50"/>
<circle cx="231.50" cy="520.92" r="3.2" fill="#0b66d0" fill-opacity="0.50"/>
<circle cx="398.23" cy="189.93" r="3.2" fill="#0b66d0" fill-opacity="0.50"/>
<circle cx="450.04" cy="564.62" r="3.2" fill="#0b66d0" fill-opacity="0.50"/>
<circle cx="373.48" cy="353.13" r="3.2" fill="#0b66d0" fill-opacity="0.50"/>
<circle cx="459.21" cy="507.52" r="3.2" fill="#0b66d0" fill-opacity="0.50"/>
<circle cx="417.05" cy="617.60" r="3.2" fill="#0b66d0" fill-opacity="0.50"/>
<circle cx="516.92" cy="532.14" r="3.2" fill="#0b66d0" fill-opacity="0.50"/>
<circle cx="576.80" cy="602.83" r="3.2" fill="#0b66d0" fill-opacity="0.50"/>
<circle cx="515.47" cy="186.33" r="3.2" fill="#0b66d0" fill-opacity="0.50"/>
<circle cx="151.08" cy="389.07" r="3.2" fill="#0b66d0" fill-opacity="0.50"/>
<circle cx="504.07" cy="448.55" r="3.2" fill="#0b66d0" fill-opacity="0.50"/>
<circle cx="381.70" cy="399.21" r="3.2" fill="#0b66d0" fill-opacity="0.50"/>
<circle cx="227.47" cy="348.95" r="3.2" fill="#0b66d0" fill-opacity="0.50"/>
<circle cx="371.78" cy="652.75" r="3.2" fill="#0b66d0" fill-opacity="0.50"/>
<circle cx="722.43" cy="409.26" r="3.2" fill="#0b66d0" fill-opacity="0.50"/>
<circle cx="485.14" cy="404.75" r="3.2" fill="#0b66d0" fill-opacity="0.50"/>
<circle cx="598.50" cy="267.86" r="3.2" fill="#0b66d0" fill-opacity="0.50"/>
<circle cx="396.27" cy="437.14" r="3.2" fill="#0b66d0" fill-opacity="0.50"/>
<circle cx="418.20" cy="415.35" r="3.2" fill="#0b66d0" fill-opacity="0.50"/>
<circle cx="465.80" cy="389.86" r="3.2" fill="#0b66d0" fill-opacity="0.50"/>
<circle cx="231.01" cy="519.40" r="3.2" fill="#0b66d0" fill-opacity="0.50"/>
<circle cx="399.46" cy="189.57" r="3.2" fill="#0b66d0" fill-opacity="0.50"/>
<circle cx="449.02" cy="563.61" r="3.2" fill="#0b66d0" fill-opacity="0.50"/>
<circle cx="372.35" cy="354.12" r="3.2" fill="#0b66d0" fill-opacity="0.50"/>
<circle cx="459.74" cy="509.57" r="3.2" fill="#0b66d0" fill-opacity="0.50"/>
<circle cx="420.82" cy="617.42" r="3.2" fill="#0b66d0" fill-opacity="0.50"/>
<circle cx="516.63" cy="530.30" r="3.2" fill="#0b66d0" fill-opacity="0.50"/>
<circle cx="578.88" cy="606.31" r="3.2" fill="#0b66d0" fill-opacity="0.50"/>
<circle cx="514.88" cy="185.29" r="3.2" fill="#0b66d0" fill-opacity="0.50"/>
<circle cx="150.38" cy="386.76" r="3.2" fill="#0b66d0" fill-opacity="0.50"/>
<circle cx="499.48" cy="449.61" r="3.2" fill="#0b66d0" fill-opacity="0.50"/>
<circle cx="382.76" cy="399.20" r="3.2" fill="#0b66d0" fill-opacity="0.50"/>
<circle cx="226.99" cy="346.09" r="3.2" fill="#0b66d0" fill-opacity="0.50"/>
<circle cx="371.13" cy="651.17" r="3.2" fill="#0b66d0" fill-opacity="0.50"/>
<circle cx="721.18" cy="412.06" r="3.2" fill="#0b66d0" fill-opacity="0.50"/>
<circle cx="484.25" cy="406.19" r="3.2" fill="#0b66d0" fill-opacity="0.50"/>
<circle cx="600.48" cy="267.83" r="3.2" fill="#0b66d0" fill-opacity="0.50"/>
<circle cx="398.04" cy="434.66" r="3.2" fill="#0b66d0" fill-opacity="0.50"/>
<circle cx="417.83" cy="415.41" r="3.2" fill="#0b66d0" fill-opacity="0.50"/>
<circle cx="466.88" cy="388.36" r="3.2" fill="#0b66d0" fill-opacity="0.50"/>
<circle cx="231.49" cy="521.40" r="3.2" fill="#0b66d0" fill-opacity="0.50"/>
<circle cx="400.40" cy="189.37" r="3.2" fill="#0b66d0" fill-opacity="0.50"/>
<circle cx="449.19" cy="566.54" r="3.2" fill="#0b66d0" fill-opacity="0.50"/>
<circle cx="373.20" cy="352.95" r="3.2" fill="#0b66d0" fill-opacity="0.50"/>
<circle cx="459.10" cy="511.17" r="3.2" fill="#0b66d0" fill-opacity="0.50"/>
<circle cx="419.81" cy="617.64" r="3.2" fill="#0b66d0" fill-opacity="0.50"/>
<circle cx="516.95" cy="530.04" r="3.2" fill="#0b66d0" fill-opacity="0.50"/>
<circle cx="578.50" cy="600.73" r="3.2" fill="#0b66d0" fill-opacity="0.50"/>
<circle cx="513.21" cy="187.97" r="3.2" fill="#0b66d0" fill-opacity="0.50"/>
<circle cx="150.88" cy="389.02" r="3.2" fill="#0b66d0" fill-opacity="0.50"/>
<circle cx="503.19" cy="448.57" r="3.2" fill="#0b66d0" fill-opacity="0.50"/>
<circle cx="380.47" cy="395.22" r="3.2" fill="#0b66d0" fill-opacity="0.50"/>
<circle cx="225.60" cy="348.64" r="3.2" fill="#0b66d0" fill-opacity="0.50"/>
<circle cx="370.36" cy="651.97" r="3.2" fill="#0b66d0" fill-opacity="0.50"/>
<circle cx="725.58" cy="411.30" r="3.2" fill="#0b66d0" fill-opacity="0.50"/>
<circle cx="483.78" cy="406.82" r="3.2" fill="#0b66d0" fill-opacity="0.50"/>
<circle cx="602.43" cy="270.18" r="3.2" fill="#0b66d0" fill-opacity="0.50"/>
<circle cx="397.24" cy="435.33" r="3.2" fill="#0b66d0" fill-opacity="0.50"/>
<circle cx="417.65" cy="414.46" r="3.2" fill="#0b66d0" fill-opacity="0.50"/>
<circle cx="464.44" cy="389.92" r="3.2" fill="#0b66d0" fill-opacity="0.50"/>
<circle cx="231.59" cy="520.92" r="3.2" fill="#0b66d0" fill-opacity="0.50"/>
<circle cx="398.18" cy="189.91" r="3.2" fill="#0b66d0" fill-opacity="0.50"/>
<circle cx="450.03" cy="564.61" r="3.2" fill="#0b66d0" fill-opacity="0.50"/>
<circle cx="373.45" cy="353.17" r="3.2" fill="#0b66d0" fill-opacity="0.50"/>
<circle cx="459.21" cy="507.54" r="3.2" fill="#0b66d0" fill-opacity="0.50"/>
<circle cx="417.03" cy="617.61" r="3.2" fill="#0b66d0" fill-opacity="0.50"/>
<circle cx="516.95" cy="532.14" r="3.2" fill="#0b66d0" fill-opacity="0.50"/>
<circle cx="576.77" cy="602.82" r="3.2" fill="#0b66d0" fill-opacity="0.50"/>
<circle cx="515.51" cy="186.33" r="3.2" fill="#0b66d0" fill-opacity="0.50"/>
<circle cx="151.07" cy="389.05" r="3.2" fill="#0b66d0" fill-opacity="0.50"/>
<circle cx="504.04" cy="448.57" r="3.2" fill="#0b66d0" fill-opacity="0.50"/>
<circle cx="381.90" cy="398.99" r="3.2" fill="#0b66d0" fill-opacity="0.50"/>
<circle cx="228.21" cy="347.22" r="3.2" fill="#0b66d0" fill-opacity="0.50"/>
<circle cx="370.16" cy="652.31" r="3.2" fill="#0b66d0" fill-opacity="0.50"/>
<circle cx="722.58" cy="411.05" r="3.2" fill="#0b66d0" fill-opacity="0.50"/>
<circle cx="485.23" cy="405.04" r="3.2" fill="#0b66d0" fill-opacity="0.50"/>
<text x="430.0" y="840" text-anchor="middle" font-size="24" font-family="Arial" font-weight="700">In-phase</text>
<text x="30" y="430.0" text-anchor="middle" font-size="24" font-family="Arial" font-weight="700" transform="rotate(-90 30 430.0)">Quadrature</text>
</svg>
